<?xml version="1.0" encoding="utf-8" standalone="no"?>
<!DOCTYPE svg PUBLIC "-//W3C//DTD SVG 1.1//EN"
  "http://www.w3.org/Graphics/SVG/1.1/DTD/svg11.dtd">
<svg xmlns:xlink="http://www.w3.org/1999/xlink" width="900.70625pt" height="316.55625pt" viewBox="0 0 900.70625 316.55625" xmlns="http://www.w3.org/2000/svg" version="1.1">
 <metadata>
  <rdf:RDF xmlns:dc="http://purl.org/dc/elements/1.1/" xmlns:cc="http://creativecommons.org/ns#" xmlns:rdf="http://www.w3.org/1999/02/22-rdf-syntax-ns#">
   <cc:Work>
    <dc:type rdf:resource="http://purl.org/dc/dcmitype/StillImage"/>
    <dc:date>2022-07-04T19:40:49.514182</dc:date>
    <dc:format>image/svg+xml</dc:format>
    <dc:creator>
     <cc:Agent>
      <dc:title>Matplotlib v3.5.2, https://matplotlib.org/</dc:title>
     </cc:Agent>
    </dc:creator>
   </cc:Work>
  </rdf:RDF>
 </metadata>
 <defs>
  <style type="text/css">*{stroke-linejoin: round; stroke-linecap: butt}</style>
 </defs>
 <g id="figure_1">
  <g id="patch_1">
   <path d="M 0 316.55625 
L 900.70625 316.55625 
L 900.70625 0 
L 0 0 
L 0 316.55625 
z
" style="fill: none"/>
  </g>
  <g id="axes_1">
   <g id="patch_2">
    <path d="M 56.50625 279 
L 893.50625 279 
L 893.50625 7.2 
L 56.50625 7.2 
z
" style="fill: #ffffff"/>
   </g>
   <g id="matplotlib.axis_1">
    <g id="xtick_1">
     <g id="text_1">
      <!-- 0 -->
      <g style="fill: #262626" transform="translate(126.407929 293.598437)scale(0.1 -0.1)">
       <defs>
        <path id="DejaVuSans-30" d="M 2034 4250 
Q 1547 4250 1301 3770 
Q 1056 3291 1056 2328 
Q 1056 1369 1301 889 
Q 1547 409 2034 409 
Q 2525 409 2770 889 
Q 3016 1369 3016 2328 
Q 3016 3291 2770 3770 
Q 2525 4250 2034 4250 
z
M 2034 4750 
Q 2819 4750 3233 4129 
Q 3647 3509 3647 2328 
Q 3647 1150 3233 529 
Q 2819 -91 2034 -91 
Q 1250 -91 836 529 
Q 422 1150 422 2328 
Q 422 3509 836 4129 
Q 1250 4750 2034 4750 
z
" transform="scale(0.015625)"/>
       </defs>
       <use xlink:href="#DejaVuSans-30"/>
      </g>
     </g>
    </g>
    <g id="xtick_2">
     <g id="text_2">
      <!-- 100 -->
      <g style="fill: #262626" transform="translate(217.897291 293.598437)scale(0.1 -0.1)">
       <defs>
        <path id="DejaVuSans-31" d="M 794 531 
L 1825 531 
L 1825 4091 
L 703 3866 
L 703 4441 
L 1819 4666 
L 2450 4666 
L 2450 531 
L 3481 531 
L 3481 0 
L 794 0 
L 794 531 
z
" transform="scale(0.015625)"/>
       </defs>
       <use xlink:href="#DejaVuSans-31"/>
       <use xlink:href="#DejaVuSans-30" x="63.623047"/>
       <use xlink:href="#DejaVuSans-30" x="127.246094"/>
      </g>
     </g>
    </g>
    <g id="xtick_3">
     <g id="text_3">
      <!-- 200 -->
      <g style="fill: #262626" transform="translate(315.749152 293.598437)scale(0.1 -0.1)">
       <defs>
        <path id="DejaVuSans-32" d="M 1228 531 
L 3431 531 
L 3431 0 
L 469 0 
L 469 531 
Q 828 903 1448 1529 
Q 2069 2156 2228 2338 
Q 2531 2678 2651 2914 
Q 2772 3150 2772 3378 
Q 2772 3750 2511 3984 
Q 2250 4219 1831 4219 
Q 1534 4219 1204 4116 
Q 875 4013 500 3803 
L 500 4441 
Q 881 4594 1212 4672 
Q 1544 4750 1819 4750 
Q 2544 4750 2975 4387 
Q 3406 4025 3406 3419 
Q 3406 3131 3298 2873 
Q 3191 2616 2906 2266 
Q 2828 2175 2409 1742 
Q 1991 1309 1228 531 
z
" transform="scale(0.015625)"/>
       </defs>
       <use xlink:href="#DejaVuSans-32"/>
       <use xlink:href="#DejaVuSans-30" x="63.623047"/>
       <use xlink:href="#DejaVuSans-30" x="127.246094"/>
      </g>
     </g>
    </g>
    <g id="xtick_4">
     <g id="text_4">
      <!-- 300 -->
      <g style="fill: #262626" transform="translate(413.601013 293.598437)scale(0.1 -0.1)">
       <defs>
        <path id="DejaVuSans-33" d="M 2597 2516 
Q 3050 2419 3304 2112 
Q 3559 1806 3559 1356 
Q 3559 666 3084 287 
Q 2609 -91 1734 -91 
Q 1441 -91 1130 -33 
Q 819 25 488 141 
L 488 750 
Q 750 597 1062 519 
Q 1375 441 1716 441 
Q 2309 441 2620 675 
Q 2931 909 2931 1356 
Q 2931 1769 2642 2001 
Q 2353 2234 1838 2234 
L 1294 2234 
L 1294 2753 
L 1863 2753 
Q 2328 2753 2575 2939 
Q 2822 3125 2822 3475 
Q 2822 3834 2567 4026 
Q 2313 4219 1838 4219 
Q 1578 4219 1281 4162 
Q 984 4106 628 3988 
L 628 4550 
Q 988 4650 1302 4700 
Q 1616 4750 1894 4750 
Q 2613 4750 3031 4423 
Q 3450 4097 3450 3541 
Q 3450 3153 3228 2886 
Q 3006 2619 2597 2516 
z
" transform="scale(0.015625)"/>
       </defs>
       <use xlink:href="#DejaVuSans-33"/>
       <use xlink:href="#DejaVuSans-30" x="63.623047"/>
       <use xlink:href="#DejaVuSans-30" x="127.246094"/>
      </g>
     </g>
    </g>
    <g id="xtick_5">
     <g id="text_5">
      <!-- 400 -->
      <g style="fill: #262626" transform="translate(511.452875 293.598437)scale(0.1 -0.1)">
       <defs>
        <path id="DejaVuSans-34" d="M 2419 4116 
L 825 1625 
L 2419 1625 
L 2419 4116 
z
M 2253 4666 
L 3047 4666 
L 3047 1625 
L 3713 1625 
L 3713 1100 
L 3047 1100 
L 3047 0 
L 2419 0 
L 2419 1100 
L 313 1100 
L 313 1709 
L 2253 4666 
z
" transform="scale(0.015625)"/>
       </defs>
       <use xlink:href="#DejaVuSans-34"/>
       <use xlink:href="#DejaVuSans-30" x="63.623047"/>
       <use xlink:href="#DejaVuSans-30" x="127.246094"/>
      </g>
     </g>
    </g>
    <g id="xtick_6">
     <g id="text_6">
      <!-- 500 -->
      <g style="fill: #262626" transform="translate(609.304736 293.598437)scale(0.1 -0.1)">
       <defs>
        <path id="DejaVuSans-35" d="M 691 4666 
L 3169 4666 
L 3169 4134 
L 1269 4134 
L 1269 2991 
Q 1406 3038 1543 3061 
Q 1681 3084 1819 3084 
Q 2600 3084 3056 2656 
Q 3513 2228 3513 1497 
Q 3513 744 3044 326 
Q 2575 -91 1722 -91 
Q 1428 -91 1123 -41 
Q 819 9 494 109 
L 494 744 
Q 775 591 1075 516 
Q 1375 441 1709 441 
Q 2250 441 2565 725 
Q 2881 1009 2881 1497 
Q 2881 1984 2565 2268 
Q 2250 2553 1709 2553 
Q 1456 2553 1204 2497 
Q 953 2441 691 2322 
L 691 4666 
z
" transform="scale(0.015625)"/>
       </defs>
       <use xlink:href="#DejaVuSans-35"/>
       <use xlink:href="#DejaVuSans-30" x="63.623047"/>
       <use xlink:href="#DejaVuSans-30" x="127.246094"/>
      </g>
     </g>
    </g>
    <g id="xtick_7">
     <g id="text_7">
      <!-- 600 -->
      <g style="fill: #262626" transform="translate(707.156598 293.598437)scale(0.1 -0.1)">
       <defs>
        <path id="DejaVuSans-36" d="M 2113 2584 
Q 1688 2584 1439 2293 
Q 1191 2003 1191 1497 
Q 1191 994 1439 701 
Q 1688 409 2113 409 
Q 2538 409 2786 701 
Q 3034 994 3034 1497 
Q 3034 2003 2786 2293 
Q 2538 2584 2113 2584 
z
M 3366 4563 
L 3366 3988 
Q 3128 4100 2886 4159 
Q 2644 4219 2406 4219 
Q 1781 4219 1451 3797 
Q 1122 3375 1075 2522 
Q 1259 2794 1537 2939 
Q 1816 3084 2150 3084 
Q 2853 3084 3261 2657 
Q 3669 2231 3669 1497 
Q 3669 778 3244 343 
Q 2819 -91 2113 -91 
Q 1303 -91 875 529 
Q 447 1150 447 2328 
Q 447 3434 972 4092 
Q 1497 4750 2381 4750 
Q 2619 4750 2861 4703 
Q 3103 4656 3366 4563 
z
" transform="scale(0.015625)"/>
       </defs>
       <use xlink:href="#DejaVuSans-36"/>
       <use xlink:href="#DejaVuSans-30" x="63.623047"/>
       <use xlink:href="#DejaVuSans-30" x="127.246094"/>
      </g>
     </g>
    </g>
    <g id="xtick_8">
     <g id="text_8">
      <!-- 700 -->
      <g style="fill: #262626" transform="translate(805.008459 293.598437)scale(0.1 -0.1)">
       <defs>
        <path id="DejaVuSans-37" d="M 525 4666 
L 3525 4666 
L 3525 4397 
L 1831 0 
L 1172 0 
L 2766 4134 
L 525 4134 
L 525 4666 
z
" transform="scale(0.015625)"/>
       </defs>
       <use xlink:href="#DejaVuSans-37"/>
       <use xlink:href="#DejaVuSans-30" x="63.623047"/>
       <use xlink:href="#DejaVuSans-30" x="127.246094"/>
      </g>
     </g>
    </g>
    <g id="text_9">
     <!-- Number of Instances -->
     <g style="fill: #262626" transform="translate(423.050781 307.276562)scale(0.1 -0.1)">
      <defs>
       <path id="DejaVuSans-4e" d="M 628 4666 
L 1478 4666 
L 3547 763 
L 3547 4666 
L 4159 4666 
L 4159 0 
L 3309 0 
L 1241 3903 
L 1241 0 
L 628 0 
L 628 4666 
z
" transform="scale(0.015625)"/>
       <path id="DejaVuSans-75" d="M 544 1381 
L 544 3500 
L 1119 3500 
L 1119 1403 
Q 1119 906 1312 657 
Q 1506 409 1894 409 
Q 2359 409 2629 706 
Q 2900 1003 2900 1516 
L 2900 3500 
L 3475 3500 
L 3475 0 
L 2900 0 
L 2900 538 
Q 2691 219 2414 64 
Q 2138 -91 1772 -91 
Q 1169 -91 856 284 
Q 544 659 544 1381 
z
M 1991 3584 
L 1991 3584 
z
" transform="scale(0.015625)"/>
       <path id="DejaVuSans-6d" d="M 3328 2828 
Q 3544 3216 3844 3400 
Q 4144 3584 4550 3584 
Q 5097 3584 5394 3201 
Q 5691 2819 5691 2113 
L 5691 0 
L 5113 0 
L 5113 2094 
Q 5113 2597 4934 2840 
Q 4756 3084 4391 3084 
Q 3944 3084 3684 2787 
Q 3425 2491 3425 1978 
L 3425 0 
L 2847 0 
L 2847 2094 
Q 2847 2600 2669 2842 
Q 2491 3084 2119 3084 
Q 1678 3084 1418 2786 
Q 1159 2488 1159 1978 
L 1159 0 
L 581 0 
L 581 3500 
L 1159 3500 
L 1159 2956 
Q 1356 3278 1631 3431 
Q 1906 3584 2284 3584 
Q 2666 3584 2933 3390 
Q 3200 3197 3328 2828 
z
" transform="scale(0.015625)"/>
       <path id="DejaVuSans-62" d="M 3116 1747 
Q 3116 2381 2855 2742 
Q 2594 3103 2138 3103 
Q 1681 3103 1420 2742 
Q 1159 2381 1159 1747 
Q 1159 1113 1420 752 
Q 1681 391 2138 391 
Q 2594 391 2855 752 
Q 3116 1113 3116 1747 
z
M 1159 2969 
Q 1341 3281 1617 3432 
Q 1894 3584 2278 3584 
Q 2916 3584 3314 3078 
Q 3713 2572 3713 1747 
Q 3713 922 3314 415 
Q 2916 -91 2278 -91 
Q 1894 -91 1617 61 
Q 1341 213 1159 525 
L 1159 0 
L 581 0 
L 581 4863 
L 1159 4863 
L 1159 2969 
z
" transform="scale(0.015625)"/>
       <path id="DejaVuSans-65" d="M 3597 1894 
L 3597 1613 
L 953 1613 
Q 991 1019 1311 708 
Q 1631 397 2203 397 
Q 2534 397 2845 478 
Q 3156 559 3463 722 
L 3463 178 
Q 3153 47 2828 -22 
Q 2503 -91 2169 -91 
Q 1331 -91 842 396 
Q 353 884 353 1716 
Q 353 2575 817 3079 
Q 1281 3584 2069 3584 
Q 2775 3584 3186 3129 
Q 3597 2675 3597 1894 
z
M 3022 2063 
Q 3016 2534 2758 2815 
Q 2500 3097 2075 3097 
Q 1594 3097 1305 2825 
Q 1016 2553 972 2059 
L 3022 2063 
z
" transform="scale(0.015625)"/>
       <path id="DejaVuSans-72" d="M 2631 2963 
Q 2534 3019 2420 3045 
Q 2306 3072 2169 3072 
Q 1681 3072 1420 2755 
Q 1159 2438 1159 1844 
L 1159 0 
L 581 0 
L 581 3500 
L 1159 3500 
L 1159 2956 
Q 1341 3275 1631 3429 
Q 1922 3584 2338 3584 
Q 2397 3584 2469 3576 
Q 2541 3569 2628 3553 
L 2631 2963 
z
" transform="scale(0.015625)"/>
       <path id="DejaVuSans-20" transform="scale(0.015625)"/>
       <path id="DejaVuSans-6f" d="M 1959 3097 
Q 1497 3097 1228 2736 
Q 959 2375 959 1747 
Q 959 1119 1226 758 
Q 1494 397 1959 397 
Q 2419 397 2687 759 
Q 2956 1122 2956 1747 
Q 2956 2369 2687 2733 
Q 2419 3097 1959 3097 
z
M 1959 3584 
Q 2709 3584 3137 3096 
Q 3566 2609 3566 1747 
Q 3566 888 3137 398 
Q 2709 -91 1959 -91 
Q 1206 -91 779 398 
Q 353 888 353 1747 
Q 353 2609 779 3096 
Q 1206 3584 1959 3584 
z
" transform="scale(0.015625)"/>
       <path id="DejaVuSans-66" d="M 2375 4863 
L 2375 4384 
L 1825 4384 
Q 1516 4384 1395 4259 
Q 1275 4134 1275 3809 
L 1275 3500 
L 2222 3500 
L 2222 3053 
L 1275 3053 
L 1275 0 
L 697 0 
L 697 3053 
L 147 3053 
L 147 3500 
L 697 3500 
L 697 3744 
Q 697 4328 969 4595 
Q 1241 4863 1831 4863 
L 2375 4863 
z
" transform="scale(0.015625)"/>
       <path id="DejaVuSans-49" d="M 628 4666 
L 1259 4666 
L 1259 0 
L 628 0 
L 628 4666 
z
" transform="scale(0.015625)"/>
       <path id="DejaVuSans-6e" d="M 3513 2113 
L 3513 0 
L 2938 0 
L 2938 2094 
Q 2938 2591 2744 2837 
Q 2550 3084 2163 3084 
Q 1697 3084 1428 2787 
Q 1159 2491 1159 1978 
L 1159 0 
L 581 0 
L 581 3500 
L 1159 3500 
L 1159 2956 
Q 1366 3272 1645 3428 
Q 1925 3584 2291 3584 
Q 2894 3584 3203 3211 
Q 3513 2838 3513 2113 
z
" transform="scale(0.015625)"/>
       <path id="DejaVuSans-73" d="M 2834 3397 
L 2834 2853 
Q 2591 2978 2328 3040 
Q 2066 3103 1784 3103 
Q 1356 3103 1142 2972 
Q 928 2841 928 2578 
Q 928 2378 1081 2264 
Q 1234 2150 1697 2047 
L 1894 2003 
Q 2506 1872 2764 1633 
Q 3022 1394 3022 966 
Q 3022 478 2636 193 
Q 2250 -91 1575 -91 
Q 1294 -91 989 -36 
Q 684 19 347 128 
L 347 722 
Q 666 556 975 473 
Q 1284 391 1588 391 
Q 1994 391 2212 530 
Q 2431 669 2431 922 
Q 2431 1156 2273 1281 
Q 2116 1406 1581 1522 
L 1381 1569 
Q 847 1681 609 1914 
Q 372 2147 372 2553 
Q 372 3047 722 3315 
Q 1072 3584 1716 3584 
Q 2034 3584 2315 3537 
Q 2597 3491 2834 3397 
z
" transform="scale(0.015625)"/>
       <path id="DejaVuSans-74" d="M 1172 4494 
L 1172 3500 
L 2356 3500 
L 2356 3053 
L 1172 3053 
L 1172 1153 
Q 1172 725 1289 603 
Q 1406 481 1766 481 
L 2356 481 
L 2356 0 
L 1766 0 
Q 1100 0 847 248 
Q 594 497 594 1153 
L 594 3053 
L 172 3053 
L 172 3500 
L 594 3500 
L 594 4494 
L 1172 4494 
z
" transform="scale(0.015625)"/>
       <path id="DejaVuSans-61" d="M 2194 1759 
Q 1497 1759 1228 1600 
Q 959 1441 959 1056 
Q 959 750 1161 570 
Q 1363 391 1709 391 
Q 2188 391 2477 730 
Q 2766 1069 2766 1631 
L 2766 1759 
L 2194 1759 
z
M 3341 1997 
L 3341 0 
L 2766 0 
L 2766 531 
Q 2569 213 2275 61 
Q 1981 -91 1556 -91 
Q 1019 -91 701 211 
Q 384 513 384 1019 
Q 384 1609 779 1909 
Q 1175 2209 1959 2209 
L 2766 2209 
L 2766 2266 
Q 2766 2663 2505 2880 
Q 2244 3097 1772 3097 
Q 1472 3097 1187 3025 
Q 903 2953 641 2809 
L 641 3341 
Q 956 3463 1253 3523 
Q 1550 3584 1831 3584 
Q 2591 3584 2966 3190 
Q 3341 2797 3341 1997 
z
" transform="scale(0.015625)"/>
       <path id="DejaVuSans-63" d="M 3122 3366 
L 3122 2828 
Q 2878 2963 2633 3030 
Q 2388 3097 2138 3097 
Q 1578 3097 1268 2742 
Q 959 2388 959 1747 
Q 959 1106 1268 751 
Q 1578 397 2138 397 
Q 2388 397 2633 464 
Q 2878 531 3122 666 
L 3122 134 
Q 2881 22 2623 -34 
Q 2366 -91 2075 -91 
Q 1284 -91 818 406 
Q 353 903 353 1747 
Q 353 2603 823 3093 
Q 1294 3584 2113 3584 
Q 2378 3584 2631 3529 
Q 2884 3475 3122 3366 
z
" transform="scale(0.015625)"/>
      </defs>
      <use xlink:href="#DejaVuSans-4e"/>
      <use xlink:href="#DejaVuSans-75" x="74.804688"/>
      <use xlink:href="#DejaVuSans-6d" x="138.183594"/>
      <use xlink:href="#DejaVuSans-62" x="235.595703"/>
      <use xlink:href="#DejaVuSans-65" x="299.072266"/>
      <use xlink:href="#DejaVuSans-72" x="360.595703"/>
      <use xlink:href="#DejaVuSans-20" x="401.708984"/>
      <use xlink:href="#DejaVuSans-6f" x="433.496094"/>
      <use xlink:href="#DejaVuSans-66" x="494.677734"/>
      <use xlink:href="#DejaVuSans-20" x="529.882812"/>
      <use xlink:href="#DejaVuSans-49" x="561.669922"/>
      <use xlink:href="#DejaVuSans-6e" x="591.162109"/>
      <use xlink:href="#DejaVuSans-73" x="654.541016"/>
      <use xlink:href="#DejaVuSans-74" x="706.640625"/>
      <use xlink:href="#DejaVuSans-61" x="745.849609"/>
      <use xlink:href="#DejaVuSans-6e" x="807.128906"/>
      <use xlink:href="#DejaVuSans-63" x="870.507812"/>
      <use xlink:href="#DejaVuSans-65" x="925.488281"/>
      <use xlink:href="#DejaVuSans-73" x="987.011719"/>
     </g>
    </g>
   </g>
   <g id="matplotlib.axis_2">
    <g id="ytick_1">
     <g id="line2d_1">
      <path d="M 56.50625 279 
L 893.50625 279 
" clip-path="url(#pab3a6bb40c)" style="fill: none; stroke: #cccccc; stroke-width: 0.8; stroke-linecap: round"/>
     </g>
     <g id="text_10">
      <!-- 0.000 -->
      <g style="fill: #262626" transform="translate(20.878125 282.799219)scale(0.1 -0.1)">
       <defs>
        <path id="DejaVuSans-2e" d="M 684 794 
L 1344 794 
L 1344 0 
L 684 0 
L 684 794 
z
" transform="scale(0.015625)"/>
       </defs>
       <use xlink:href="#DejaVuSans-30"/>
       <use xlink:href="#DejaVuSans-2e" x="63.623047"/>
       <use xlink:href="#DejaVuSans-30" x="95.410156"/>
       <use xlink:href="#DejaVuSans-30" x="159.033203"/>
       <use xlink:href="#DejaVuSans-30" x="222.65625"/>
      </g>
     </g>
    </g>
    <g id="ytick_2">
     <g id="line2d_2">
      <path d="M 56.50625 218.9473 
L 893.50625 218.9473 
" clip-path="url(#pab3a6bb40c)" style="fill: none; stroke: #cccccc; stroke-width: 0.8; stroke-linecap: round"/>
     </g>
     <g id="text_11">
      <!-- 0.001 -->
      <g style="fill: #262626" transform="translate(20.878125 222.746519)scale(0.1 -0.1)">
       <use xlink:href="#DejaVuSans-30"/>
       <use xlink:href="#DejaVuSans-2e" x="63.623047"/>
       <use xlink:href="#DejaVuSans-30" x="95.410156"/>
       <use xlink:href="#DejaVuSans-30" x="159.033203"/>
       <use xlink:href="#DejaVuSans-31" x="222.65625"/>
      </g>
     </g>
    </g>
    <g id="ytick_3">
     <g id="line2d_3">
      <path d="M 56.50625 158.8946 
L 893.50625 158.8946 
" clip-path="url(#pab3a6bb40c)" style="fill: none; stroke: #cccccc; stroke-width: 0.8; stroke-linecap: round"/>
     </g>
     <g id="text_12">
      <!-- 0.002 -->
      <g style="fill: #262626" transform="translate(20.878125 162.693819)scale(0.1 -0.1)">
       <use xlink:href="#DejaVuSans-30"/>
       <use xlink:href="#DejaVuSans-2e" x="63.623047"/>
       <use xlink:href="#DejaVuSans-30" x="95.410156"/>
       <use xlink:href="#DejaVuSans-30" x="159.033203"/>
       <use xlink:href="#DejaVuSans-32" x="222.65625"/>
      </g>
     </g>
    </g>
    <g id="ytick_4">
     <g id="line2d_4">
      <path d="M 56.50625 98.8419 
L 893.50625 98.8419 
" clip-path="url(#pab3a6bb40c)" style="fill: none; stroke: #cccccc; stroke-width: 0.8; stroke-linecap: round"/>
     </g>
     <g id="text_13">
      <!-- 0.003 -->
      <g style="fill: #262626" transform="translate(20.878125 102.641119)scale(0.1 -0.1)">
       <use xlink:href="#DejaVuSans-30"/>
       <use xlink:href="#DejaVuSans-2e" x="63.623047"/>
       <use xlink:href="#DejaVuSans-30" x="95.410156"/>
       <use xlink:href="#DejaVuSans-30" x="159.033203"/>
       <use xlink:href="#DejaVuSans-33" x="222.65625"/>
      </g>
     </g>
    </g>
    <g id="ytick_5">
     <g id="line2d_5">
      <path d="M 56.50625 38.7892 
L 893.50625 38.7892 
" clip-path="url(#pab3a6bb40c)" style="fill: none; stroke: #cccccc; stroke-width: 0.8; stroke-linecap: round"/>
     </g>
     <g id="text_14">
      <!-- 0.004 -->
      <g style="fill: #262626" transform="translate(20.878125 42.588419)scale(0.1 -0.1)">
       <use xlink:href="#DejaVuSans-30"/>
       <use xlink:href="#DejaVuSans-2e" x="63.623047"/>
       <use xlink:href="#DejaVuSans-30" x="95.410156"/>
       <use xlink:href="#DejaVuSans-30" x="159.033203"/>
       <use xlink:href="#DejaVuSans-34" x="222.65625"/>
      </g>
     </g>
    </g>
    <g id="text_15">
     <!-- Density -->
     <g style="fill: #262626" transform="translate(14.798438 162.108594)rotate(-90)scale(0.1 -0.1)">
      <defs>
       <path id="DejaVuSans-44" d="M 1259 4147 
L 1259 519 
L 2022 519 
Q 2988 519 3436 956 
Q 3884 1394 3884 2338 
Q 3884 3275 3436 3711 
Q 2988 4147 2022 4147 
L 1259 4147 
z
M 628 4666 
L 1925 4666 
Q 3281 4666 3915 4102 
Q 4550 3538 4550 2338 
Q 4550 1131 3912 565 
Q 3275 0 1925 0 
L 628 0 
L 628 4666 
z
" transform="scale(0.015625)"/>
       <path id="DejaVuSans-69" d="M 603 3500 
L 1178 3500 
L 1178 0 
L 603 0 
L 603 3500 
z
M 603 4863 
L 1178 4863 
L 1178 4134 
L 603 4134 
L 603 4863 
z
" transform="scale(0.015625)"/>
       <path id="DejaVuSans-79" d="M 2059 -325 
Q 1816 -950 1584 -1140 
Q 1353 -1331 966 -1331 
L 506 -1331 
L 506 -850 
L 844 -850 
Q 1081 -850 1212 -737 
Q 1344 -625 1503 -206 
L 1606 56 
L 191 3500 
L 800 3500 
L 1894 763 
L 2988 3500 
L 3597 3500 
L 2059 -325 
z
" transform="scale(0.015625)"/>
      </defs>
      <use xlink:href="#DejaVuSans-44"/>
      <use xlink:href="#DejaVuSans-65" x="77.001953"/>
      <use xlink:href="#DejaVuSans-6e" x="138.525391"/>
      <use xlink:href="#DejaVuSans-73" x="201.904297"/>
      <use xlink:href="#DejaVuSans-69" x="254.003906"/>
      <use xlink:href="#DejaVuSans-74" x="281.787109"/>
      <use xlink:href="#DejaVuSans-79" x="320.996094"/>
     </g>
    </g>
   </g>
   <g id="patch_3">
    <path d="M 190.257333 279 
L 228.223855 279 
L 228.223855 235.857143 
L 190.257333 235.857143 
z
" clip-path="url(#pab3a6bb40c)" style="fill: #a3c9dc; opacity: 0.6"/>
   </g>
   <g id="patch_4">
    <path d="M 228.223855 279 
L 266.190378 279 
L 266.190378 106.428571 
L 228.223855 106.428571 
z
" clip-path="url(#pab3a6bb40c)" style="fill: #a3c9dc; opacity: 0.6"/>
   </g>
   <g id="patch_5">
    <path d="M 266.190378 279 
L 304.1569 279 
L 304.1569 20.142857 
L 266.190378 20.142857 
z
" clip-path="url(#pab3a6bb40c)" style="fill: #a3c9dc; opacity: 0.6"/>
   </g>
   <g id="patch_6">
    <path d="M 304.1569 279 
L 342.123422 279 
L 342.123422 74.071429 
L 304.1569 74.071429 
z
" clip-path="url(#pab3a6bb40c)" style="fill: #a3c9dc; opacity: 0.6"/>
   </g>
   <g id="patch_7">
    <path d="M 342.123422 279 
L 380.089944 279 
L 380.089944 41.714286 
L 342.123422 41.714286 
z
" clip-path="url(#pab3a6bb40c)" style="fill: #a3c9dc; opacity: 0.6"/>
   </g>
   <g id="patch_8">
    <path d="M 380.089944 279 
L 418.056467 279 
L 418.056467 57.892857 
L 380.089944 57.892857 
z
" clip-path="url(#pab3a6bb40c)" style="fill: #a3c9dc; opacity: 0.6"/>
   </g>
   <g id="patch_9">
    <path d="M 418.056467 279 
L 456.022989 279 
L 456.022989 133.392857 
L 418.056467 133.392857 
z
" clip-path="url(#pab3a6bb40c)" style="fill: #a3c9dc; opacity: 0.6"/>
   </g>
   <g id="patch_10">
    <path d="M 456.022989 279 
L 493.989511 279 
L 493.989511 165.75 
L 456.022989 165.75 
z
" clip-path="url(#pab3a6bb40c)" style="fill: #a3c9dc; opacity: 0.6"/>
   </g>
   <g id="patch_11">
    <path d="M 493.989511 279 
L 531.956033 279 
L 531.956033 230.464286 
L 493.989511 230.464286 
z
" clip-path="url(#pab3a6bb40c)" style="fill: #a3c9dc; opacity: 0.6"/>
   </g>
   <g id="patch_12">
    <path d="M 531.956033 279 
L 569.922556 279 
L 569.922556 262.821429 
L 531.956033 262.821429 
z
" clip-path="url(#pab3a6bb40c)" style="fill: #a3c9dc; opacity: 0.6"/>
   </g>
   <g id="patch_13">
    <path d="M 569.922556 279 
L 607.889078 279 
L 607.889078 241.25 
L 569.922556 241.25 
z
" clip-path="url(#pab3a6bb40c)" style="fill: #a3c9dc; opacity: 0.6"/>
   </g>
   <g id="patch_14">
    <path d="M 607.889078 279 
L 645.8556 279 
L 645.8556 241.25 
L 607.889078 241.25 
z
" clip-path="url(#pab3a6bb40c)" style="fill: #a3c9dc; opacity: 0.6"/>
   </g>
   <g id="patch_15">
    <path d="M 645.8556 279 
L 683.822122 279 
L 683.822122 279 
L 645.8556 279 
z
" clip-path="url(#pab3a6bb40c)" style="fill: #a3c9dc; opacity: 0.6"/>
   </g>
   <g id="patch_16">
    <path d="M 683.822122 279 
L 721.788645 279 
L 721.788645 273.607143 
L 683.822122 273.607143 
z
" clip-path="url(#pab3a6bb40c)" style="fill: #a3c9dc; opacity: 0.6"/>
   </g>
   <g id="patch_17">
    <path d="M 721.788645 279 
L 759.755167 279 
L 759.755167 273.607143 
L 721.788645 273.607143 
z
" clip-path="url(#pab3a6bb40c)" style="fill: #a3c9dc; opacity: 0.6"/>
   </g>
   <g id="line2d_6">
    <path d="M 94.551705 278.942671 
L 102.237655 278.878172 
L 109.923605 278.753611 
L 117.609556 278.525078 
L 125.295506 278.126081 
L 132.981457 277.461825 
L 140.667407 276.404774 
L 148.353357 274.792449 
L 156.039308 272.428102 
L 163.725258 269.08464 
L 171.411209 264.51237 
L 179.097159 258.451949 
L 186.78311 250.654718 
L 194.46906 240.912203 
L 202.15501 229.093944 
L 209.840961 215.188064 
L 217.526911 199.334307 
L 225.212862 181.838078 
L 232.898812 163.158639 
L 240.584762 143.873992 
L 248.270713 124.633886 
L 255.956663 106.11466 
L 263.642614 88.982309 
L 271.328564 73.857888 
L 279.014514 61.271538 
L 286.700465 51.596778 
L 294.386415 44.974773 
L 302.072366 41.258283 
L 309.758316 40.011496 
L 317.444267 40.585925 
L 325.130217 42.259699 
L 332.816167 44.39589 
L 340.502118 46.564612 
L 348.188068 48.591164 
L 355.874019 50.528529 
L 363.559969 52.585605 
L 371.245919 55.053765 
L 378.93187 58.259252 
L 386.61782 62.540082 
L 394.303771 68.223804 
L 401.989721 75.581279 
L 409.675671 84.751842 
L 417.361622 95.663122 
L 425.047572 107.985883 
L 432.733523 121.15872 
L 440.419473 134.49025 
L 448.105424 147.311475 
L 455.791374 159.126126 
L 463.477324 169.705382 
L 471.163275 179.095876 
L 478.849225 187.545034 
L 486.535176 195.378308 
L 494.221126 202.875397 
L 501.907076 210.184325 
L 509.593027 217.291084 
L 517.278977 224.040676 
L 524.964928 230.192159 
L 532.650878 235.487546 
L 540.336829 239.7182 
L 548.022779 242.777202 
L 555.708729 244.689731 
L 563.39468 245.616603 
L 571.08063 245.830695 
L 578.766581 245.672154 
L 586.452531 245.493646 
L 594.138481 245.608622 
L 601.824432 246.252665 
L 609.510382 247.562154 
L 617.196333 249.569067 
L 624.882283 252.208081 
L 632.568233 255.332539 
L 640.254184 258.737415 
L 647.940134 262.188214 
L 655.626085 265.453663 
L 663.312035 268.337912 
L 670.997986 270.706417 
L 678.683936 272.499991 
L 686.369886 273.734142 
L 694.055837 274.48465 
L 701.741787 274.864118 
L 709.427738 274.996315 
L 717.113688 274.99491 
L 724.799638 274.950829 
L 732.485589 274.928793 
L 740.171539 274.970376 
L 747.85749 275.099335 
L 755.54344 275.32564 
L 763.22939 275.646926 
L 770.915341 276.048518 
L 778.601291 276.504344 
L 786.287242 276.980424 
L 793.973192 277.440884 
L 801.659143 277.854748 
L 809.345093 278.20122 
L 817.031043 278.471843 
L 824.716994 278.669336 
L 832.402944 278.804156 
L 840.088895 278.89034 
L 847.774845 278.941977 
L 855.460795 278.971 
" clip-path="url(#pab3a6bb40c)" style="fill: none; stroke: #4e79a7; stroke-width: 1.5; stroke-linecap: round"/>
   </g>
   <g id="LineCollection_1">
    <path d="M 759.755167 279 
L 759.755167 265.41 
" clip-path="url(#pab3a6bb40c)" style="fill: none; stroke: #4e79a7"/>
    <path d="M 714.743311 279 
L 714.743311 265.41 
" clip-path="url(#pab3a6bb40c)" style="fill: none; stroke: #4e79a7"/>
    <path d="M 641.354414 279 
L 641.354414 265.41 
" clip-path="url(#pab3a6bb40c)" style="fill: none; stroke: #4e79a7"/>
    <path d="M 638.418859 279 
L 638.418859 265.41 
" clip-path="url(#pab3a6bb40c)" style="fill: none; stroke: #4e79a7"/>
    <path d="M 624.719598 279 
L 624.719598 265.41 
" clip-path="url(#pab3a6bb40c)" style="fill: none; stroke: #4e79a7"/>
    <path d="M 622.762561 279 
L 622.762561 265.41 
" clip-path="url(#pab3a6bb40c)" style="fill: none; stroke: #4e79a7"/>
    <path d="M 622.762561 279 
L 622.762561 265.41 
" clip-path="url(#pab3a6bb40c)" style="fill: none; stroke: #4e79a7"/>
    <path d="M 608.084782 279 
L 608.084782 265.41 
" clip-path="url(#pab3a6bb40c)" style="fill: none; stroke: #4e79a7"/>
    <path d="M 608.084782 279 
L 608.084782 265.41 
" clip-path="url(#pab3a6bb40c)" style="fill: none; stroke: #4e79a7"/>
    <path d="M 605.149226 279 
L 605.149226 265.41 
" clip-path="url(#pab3a6bb40c)" style="fill: none; stroke: #4e79a7"/>
    <path d="M 597.321077 279 
L 597.321077 265.41 
" clip-path="url(#pab3a6bb40c)" style="fill: none; stroke: #4e79a7"/>
    <path d="M 588.514409 279 
L 588.514409 265.41 
" clip-path="url(#pab3a6bb40c)" style="fill: none; stroke: #4e79a7"/>
    <path d="M 584.600335 279 
L 584.600335 265.41 
" clip-path="url(#pab3a6bb40c)" style="fill: none; stroke: #4e79a7"/>
    <path d="M 582.643298 279 
L 582.643298 265.41 
" clip-path="url(#pab3a6bb40c)" style="fill: none; stroke: #4e79a7"/>
    <path d="M 580.68626 279 
L 580.68626 265.41 
" clip-path="url(#pab3a6bb40c)" style="fill: none; stroke: #4e79a7"/>
    <path d="M 570.901074 279 
L 570.901074 265.41 
" clip-path="url(#pab3a6bb40c)" style="fill: none; stroke: #4e79a7"/>
    <path d="M 568.944037 279 
L 568.944037 265.41 
" clip-path="url(#pab3a6bb40c)" style="fill: none; stroke: #4e79a7"/>
    <path d="M 560.137369 279 
L 560.137369 265.41 
" clip-path="url(#pab3a6bb40c)" style="fill: none; stroke: #4e79a7"/>
    <path d="M 534.695885 279 
L 534.695885 265.41 
" clip-path="url(#pab3a6bb40c)" style="fill: none; stroke: #4e79a7"/>
    <path d="M 527.846255 279 
L 527.846255 265.41 
" clip-path="url(#pab3a6bb40c)" style="fill: none; stroke: #4e79a7"/>
    <path d="M 524.910699 279 
L 524.910699 265.41 
" clip-path="url(#pab3a6bb40c)" style="fill: none; stroke: #4e79a7"/>
    <path d="M 523.932181 279 
L 523.932181 265.41 
" clip-path="url(#pab3a6bb40c)" style="fill: none; stroke: #4e79a7"/>
    <path d="M 521.975143 279 
L 521.975143 265.41 
" clip-path="url(#pab3a6bb40c)" style="fill: none; stroke: #4e79a7"/>
    <path d="M 516.104032 279 
L 516.104032 265.41 
" clip-path="url(#pab3a6bb40c)" style="fill: none; stroke: #4e79a7"/>
    <path d="M 515.125513 279 
L 515.125513 265.41 
" clip-path="url(#pab3a6bb40c)" style="fill: none; stroke: #4e79a7"/>
    <path d="M 508.275883 279 
L 508.275883 265.41 
" clip-path="url(#pab3a6bb40c)" style="fill: none; stroke: #4e79a7"/>
    <path d="M 505.340327 279 
L 505.340327 265.41 
" clip-path="url(#pab3a6bb40c)" style="fill: none; stroke: #4e79a7"/>
    <path d="M 496.53366 279 
L 496.53366 265.41 
" clip-path="url(#pab3a6bb40c)" style="fill: none; stroke: #4e79a7"/>
    <path d="M 492.619585 279 
L 492.619585 265.41 
" clip-path="url(#pab3a6bb40c)" style="fill: none; stroke: #4e79a7"/>
    <path d="M 489.684029 279 
L 489.684029 265.41 
" clip-path="url(#pab3a6bb40c)" style="fill: none; stroke: #4e79a7"/>
    <path d="M 489.684029 279 
L 489.684029 265.41 
" clip-path="url(#pab3a6bb40c)" style="fill: none; stroke: #4e79a7"/>
    <path d="M 487.726992 279 
L 487.726992 265.41 
" clip-path="url(#pab3a6bb40c)" style="fill: none; stroke: #4e79a7"/>
    <path d="M 487.726992 279 
L 487.726992 265.41 
" clip-path="url(#pab3a6bb40c)" style="fill: none; stroke: #4e79a7"/>
    <path d="M 486.748473 279 
L 486.748473 265.41 
" clip-path="url(#pab3a6bb40c)" style="fill: none; stroke: #4e79a7"/>
    <path d="M 485.769955 279 
L 485.769955 265.41 
" clip-path="url(#pab3a6bb40c)" style="fill: none; stroke: #4e79a7"/>
    <path d="M 484.791436 279 
L 484.791436 265.41 
" clip-path="url(#pab3a6bb40c)" style="fill: none; stroke: #4e79a7"/>
    <path d="M 481.85588 279 
L 481.85588 265.41 
" clip-path="url(#pab3a6bb40c)" style="fill: none; stroke: #4e79a7"/>
    <path d="M 480.877362 279 
L 480.877362 265.41 
" clip-path="url(#pab3a6bb40c)" style="fill: none; stroke: #4e79a7"/>
    <path d="M 476.963287 279 
L 476.963287 265.41 
" clip-path="url(#pab3a6bb40c)" style="fill: none; stroke: #4e79a7"/>
    <path d="M 473.049213 279 
L 473.049213 265.41 
" clip-path="url(#pab3a6bb40c)" style="fill: none; stroke: #4e79a7"/>
    <path d="M 472.070694 279 
L 472.070694 265.41 
" clip-path="url(#pab3a6bb40c)" style="fill: none; stroke: #4e79a7"/>
    <path d="M 472.070694 279 
L 472.070694 265.41 
" clip-path="url(#pab3a6bb40c)" style="fill: none; stroke: #4e79a7"/>
    <path d="M 467.178101 279 
L 467.178101 265.41 
" clip-path="url(#pab3a6bb40c)" style="fill: none; stroke: #4e79a7"/>
    <path d="M 465.221064 279 
L 465.221064 265.41 
" clip-path="url(#pab3a6bb40c)" style="fill: none; stroke: #4e79a7"/>
    <path d="M 465.221064 279 
L 465.221064 265.41 
" clip-path="url(#pab3a6bb40c)" style="fill: none; stroke: #4e79a7"/>
    <path d="M 465.221064 279 
L 465.221064 265.41 
" clip-path="url(#pab3a6bb40c)" style="fill: none; stroke: #4e79a7"/>
    <path d="M 464.242545 279 
L 464.242545 265.41 
" clip-path="url(#pab3a6bb40c)" style="fill: none; stroke: #4e79a7"/>
    <path d="M 464.242545 279 
L 464.242545 265.41 
" clip-path="url(#pab3a6bb40c)" style="fill: none; stroke: #4e79a7"/>
    <path d="M 457.392915 279 
L 457.392915 265.41 
" clip-path="url(#pab3a6bb40c)" style="fill: none; stroke: #4e79a7"/>
    <path d="M 451.521803 279 
L 451.521803 265.41 
" clip-path="url(#pab3a6bb40c)" style="fill: none; stroke: #4e79a7"/>
    <path d="M 447.607729 279 
L 447.607729 265.41 
" clip-path="url(#pab3a6bb40c)" style="fill: none; stroke: #4e79a7"/>
    <path d="M 443.693654 279 
L 443.693654 265.41 
" clip-path="url(#pab3a6bb40c)" style="fill: none; stroke: #4e79a7"/>
    <path d="M 441.736617 279 
L 441.736617 265.41 
" clip-path="url(#pab3a6bb40c)" style="fill: none; stroke: #4e79a7"/>
    <path d="M 439.77958 279 
L 439.77958 265.41 
" clip-path="url(#pab3a6bb40c)" style="fill: none; stroke: #4e79a7"/>
    <path d="M 436.844024 279 
L 436.844024 265.41 
" clip-path="url(#pab3a6bb40c)" style="fill: none; stroke: #4e79a7"/>
    <path d="M 435.865505 279 
L 435.865505 265.41 
" clip-path="url(#pab3a6bb40c)" style="fill: none; stroke: #4e79a7"/>
    <path d="M 435.865505 279 
L 435.865505 265.41 
" clip-path="url(#pab3a6bb40c)" style="fill: none; stroke: #4e79a7"/>
    <path d="M 431.951431 279 
L 431.951431 265.41 
" clip-path="url(#pab3a6bb40c)" style="fill: none; stroke: #4e79a7"/>
    <path d="M 429.994394 279 
L 429.994394 265.41 
" clip-path="url(#pab3a6bb40c)" style="fill: none; stroke: #4e79a7"/>
    <path d="M 429.994394 279 
L 429.994394 265.41 
" clip-path="url(#pab3a6bb40c)" style="fill: none; stroke: #4e79a7"/>
    <path d="M 429.015875 279 
L 429.015875 265.41 
" clip-path="url(#pab3a6bb40c)" style="fill: none; stroke: #4e79a7"/>
    <path d="M 428.037357 279 
L 428.037357 265.41 
" clip-path="url(#pab3a6bb40c)" style="fill: none; stroke: #4e79a7"/>
    <path d="M 428.037357 279 
L 428.037357 265.41 
" clip-path="url(#pab3a6bb40c)" style="fill: none; stroke: #4e79a7"/>
    <path d="M 426.080319 279 
L 426.080319 265.41 
" clip-path="url(#pab3a6bb40c)" style="fill: none; stroke: #4e79a7"/>
    <path d="M 426.080319 279 
L 426.080319 265.41 
" clip-path="url(#pab3a6bb40c)" style="fill: none; stroke: #4e79a7"/>
    <path d="M 424.123282 279 
L 424.123282 265.41 
" clip-path="url(#pab3a6bb40c)" style="fill: none; stroke: #4e79a7"/>
    <path d="M 424.123282 279 
L 424.123282 265.41 
" clip-path="url(#pab3a6bb40c)" style="fill: none; stroke: #4e79a7"/>
    <path d="M 423.144763 279 
L 423.144763 265.41 
" clip-path="url(#pab3a6bb40c)" style="fill: none; stroke: #4e79a7"/>
    <path d="M 423.144763 279 
L 423.144763 265.41 
" clip-path="url(#pab3a6bb40c)" style="fill: none; stroke: #4e79a7"/>
    <path d="M 423.144763 279 
L 423.144763 265.41 
" clip-path="url(#pab3a6bb40c)" style="fill: none; stroke: #4e79a7"/>
    <path d="M 422.166245 279 
L 422.166245 265.41 
" clip-path="url(#pab3a6bb40c)" style="fill: none; stroke: #4e79a7"/>
    <path d="M 421.187726 279 
L 421.187726 265.41 
" clip-path="url(#pab3a6bb40c)" style="fill: none; stroke: #4e79a7"/>
    <path d="M 419.230689 279 
L 419.230689 265.41 
" clip-path="url(#pab3a6bb40c)" style="fill: none; stroke: #4e79a7"/>
    <path d="M 419.230689 279 
L 419.230689 265.41 
" clip-path="url(#pab3a6bb40c)" style="fill: none; stroke: #4e79a7"/>
    <path d="M 418.25217 279 
L 418.25217 265.41 
" clip-path="url(#pab3a6bb40c)" style="fill: none; stroke: #4e79a7"/>
    <path d="M 418.25217 279 
L 418.25217 265.41 
" clip-path="url(#pab3a6bb40c)" style="fill: none; stroke: #4e79a7"/>
    <path d="M 417.273652 279 
L 417.273652 265.41 
" clip-path="url(#pab3a6bb40c)" style="fill: none; stroke: #4e79a7"/>
    <path d="M 416.295133 279 
L 416.295133 265.41 
" clip-path="url(#pab3a6bb40c)" style="fill: none; stroke: #4e79a7"/>
    <path d="M 415.316615 279 
L 415.316615 265.41 
" clip-path="url(#pab3a6bb40c)" style="fill: none; stroke: #4e79a7"/>
    <path d="M 415.316615 279 
L 415.316615 265.41 
" clip-path="url(#pab3a6bb40c)" style="fill: none; stroke: #4e79a7"/>
    <path d="M 414.338096 279 
L 414.338096 265.41 
" clip-path="url(#pab3a6bb40c)" style="fill: none; stroke: #4e79a7"/>
    <path d="M 413.359577 279 
L 413.359577 265.41 
" clip-path="url(#pab3a6bb40c)" style="fill: none; stroke: #4e79a7"/>
    <path d="M 410.424021 279 
L 410.424021 265.41 
" clip-path="url(#pab3a6bb40c)" style="fill: none; stroke: #4e79a7"/>
    <path d="M 409.445503 279 
L 409.445503 265.41 
" clip-path="url(#pab3a6bb40c)" style="fill: none; stroke: #4e79a7"/>
    <path d="M 408.466984 279 
L 408.466984 265.41 
" clip-path="url(#pab3a6bb40c)" style="fill: none; stroke: #4e79a7"/>
    <path d="M 408.466984 279 
L 408.466984 265.41 
" clip-path="url(#pab3a6bb40c)" style="fill: none; stroke: #4e79a7"/>
    <path d="M 404.55291 279 
L 404.55291 265.41 
" clip-path="url(#pab3a6bb40c)" style="fill: none; stroke: #4e79a7"/>
    <path d="M 404.55291 279 
L 404.55291 265.41 
" clip-path="url(#pab3a6bb40c)" style="fill: none; stroke: #4e79a7"/>
    <path d="M 402.595873 279 
L 402.595873 265.41 
" clip-path="url(#pab3a6bb40c)" style="fill: none; stroke: #4e79a7"/>
    <path d="M 402.595873 279 
L 402.595873 265.41 
" clip-path="url(#pab3a6bb40c)" style="fill: none; stroke: #4e79a7"/>
    <path d="M 402.595873 279 
L 402.595873 265.41 
" clip-path="url(#pab3a6bb40c)" style="fill: none; stroke: #4e79a7"/>
    <path d="M 401.617354 279 
L 401.617354 265.41 
" clip-path="url(#pab3a6bb40c)" style="fill: none; stroke: #4e79a7"/>
    <path d="M 400.638835 279 
L 400.638835 265.41 
" clip-path="url(#pab3a6bb40c)" style="fill: none; stroke: #4e79a7"/>
    <path d="M 399.660317 279 
L 399.660317 265.41 
" clip-path="url(#pab3a6bb40c)" style="fill: none; stroke: #4e79a7"/>
    <path d="M 399.660317 279 
L 399.660317 265.41 
" clip-path="url(#pab3a6bb40c)" style="fill: none; stroke: #4e79a7"/>
    <path d="M 398.681798 279 
L 398.681798 265.41 
" clip-path="url(#pab3a6bb40c)" style="fill: none; stroke: #4e79a7"/>
    <path d="M 398.681798 279 
L 398.681798 265.41 
" clip-path="url(#pab3a6bb40c)" style="fill: none; stroke: #4e79a7"/>
    <path d="M 398.681798 279 
L 398.681798 265.41 
" clip-path="url(#pab3a6bb40c)" style="fill: none; stroke: #4e79a7"/>
    <path d="M 397.703279 279 
L 397.703279 265.41 
" clip-path="url(#pab3a6bb40c)" style="fill: none; stroke: #4e79a7"/>
    <path d="M 396.724761 279 
L 396.724761 265.41 
" clip-path="url(#pab3a6bb40c)" style="fill: none; stroke: #4e79a7"/>
    <path d="M 395.746242 279 
L 395.746242 265.41 
" clip-path="url(#pab3a6bb40c)" style="fill: none; stroke: #4e79a7"/>
    <path d="M 393.789205 279 
L 393.789205 265.41 
" clip-path="url(#pab3a6bb40c)" style="fill: none; stroke: #4e79a7"/>
    <path d="M 393.789205 279 
L 393.789205 265.41 
" clip-path="url(#pab3a6bb40c)" style="fill: none; stroke: #4e79a7"/>
    <path d="M 393.789205 279 
L 393.789205 265.41 
" clip-path="url(#pab3a6bb40c)" style="fill: none; stroke: #4e79a7"/>
    <path d="M 392.810686 279 
L 392.810686 265.41 
" clip-path="url(#pab3a6bb40c)" style="fill: none; stroke: #4e79a7"/>
    <path d="M 390.853649 279 
L 390.853649 265.41 
" clip-path="url(#pab3a6bb40c)" style="fill: none; stroke: #4e79a7"/>
    <path d="M 389.875131 279 
L 389.875131 265.41 
" clip-path="url(#pab3a6bb40c)" style="fill: none; stroke: #4e79a7"/>
    <path d="M 388.896612 279 
L 388.896612 265.41 
" clip-path="url(#pab3a6bb40c)" style="fill: none; stroke: #4e79a7"/>
    <path d="M 388.896612 279 
L 388.896612 265.41 
" clip-path="url(#pab3a6bb40c)" style="fill: none; stroke: #4e79a7"/>
    <path d="M 385.961056 279 
L 385.961056 265.41 
" clip-path="url(#pab3a6bb40c)" style="fill: none; stroke: #4e79a7"/>
    <path d="M 385.961056 279 
L 385.961056 265.41 
" clip-path="url(#pab3a6bb40c)" style="fill: none; stroke: #4e79a7"/>
    <path d="M 384.004019 279 
L 384.004019 265.41 
" clip-path="url(#pab3a6bb40c)" style="fill: none; stroke: #4e79a7"/>
    <path d="M 383.0255 279 
L 383.0255 265.41 
" clip-path="url(#pab3a6bb40c)" style="fill: none; stroke: #4e79a7"/>
    <path d="M 383.0255 279 
L 383.0255 265.41 
" clip-path="url(#pab3a6bb40c)" style="fill: none; stroke: #4e79a7"/>
    <path d="M 383.0255 279 
L 383.0255 265.41 
" clip-path="url(#pab3a6bb40c)" style="fill: none; stroke: #4e79a7"/>
    <path d="M 383.0255 279 
L 383.0255 265.41 
" clip-path="url(#pab3a6bb40c)" style="fill: none; stroke: #4e79a7"/>
    <path d="M 381.068463 279 
L 381.068463 265.41 
" clip-path="url(#pab3a6bb40c)" style="fill: none; stroke: #4e79a7"/>
    <path d="M 378.132907 279 
L 378.132907 265.41 
" clip-path="url(#pab3a6bb40c)" style="fill: none; stroke: #4e79a7"/>
    <path d="M 377.154389 279 
L 377.154389 265.41 
" clip-path="url(#pab3a6bb40c)" style="fill: none; stroke: #4e79a7"/>
    <path d="M 374.218833 279 
L 374.218833 265.41 
" clip-path="url(#pab3a6bb40c)" style="fill: none; stroke: #4e79a7"/>
    <path d="M 373.240314 279 
L 373.240314 265.41 
" clip-path="url(#pab3a6bb40c)" style="fill: none; stroke: #4e79a7"/>
    <path d="M 373.240314 279 
L 373.240314 265.41 
" clip-path="url(#pab3a6bb40c)" style="fill: none; stroke: #4e79a7"/>
    <path d="M 371.283277 279 
L 371.283277 265.41 
" clip-path="url(#pab3a6bb40c)" style="fill: none; stroke: #4e79a7"/>
    <path d="M 371.283277 279 
L 371.283277 265.41 
" clip-path="url(#pab3a6bb40c)" style="fill: none; stroke: #4e79a7"/>
    <path d="M 369.32624 279 
L 369.32624 265.41 
" clip-path="url(#pab3a6bb40c)" style="fill: none; stroke: #4e79a7"/>
    <path d="M 369.32624 279 
L 369.32624 265.41 
" clip-path="url(#pab3a6bb40c)" style="fill: none; stroke: #4e79a7"/>
    <path d="M 368.347721 279 
L 368.347721 265.41 
" clip-path="url(#pab3a6bb40c)" style="fill: none; stroke: #4e79a7"/>
    <path d="M 367.369202 279 
L 367.369202 265.41 
" clip-path="url(#pab3a6bb40c)" style="fill: none; stroke: #4e79a7"/>
    <path d="M 365.412165 279 
L 365.412165 265.41 
" clip-path="url(#pab3a6bb40c)" style="fill: none; stroke: #4e79a7"/>
    <path d="M 364.433647 279 
L 364.433647 265.41 
" clip-path="url(#pab3a6bb40c)" style="fill: none; stroke: #4e79a7"/>
    <path d="M 363.455128 279 
L 363.455128 265.41 
" clip-path="url(#pab3a6bb40c)" style="fill: none; stroke: #4e79a7"/>
    <path d="M 363.455128 279 
L 363.455128 265.41 
" clip-path="url(#pab3a6bb40c)" style="fill: none; stroke: #4e79a7"/>
    <path d="M 361.498091 279 
L 361.498091 265.41 
" clip-path="url(#pab3a6bb40c)" style="fill: none; stroke: #4e79a7"/>
    <path d="M 361.498091 279 
L 361.498091 265.41 
" clip-path="url(#pab3a6bb40c)" style="fill: none; stroke: #4e79a7"/>
    <path d="M 361.498091 279 
L 361.498091 265.41 
" clip-path="url(#pab3a6bb40c)" style="fill: none; stroke: #4e79a7"/>
    <path d="M 360.519572 279 
L 360.519572 265.41 
" clip-path="url(#pab3a6bb40c)" style="fill: none; stroke: #4e79a7"/>
    <path d="M 359.541053 279 
L 359.541053 265.41 
" clip-path="url(#pab3a6bb40c)" style="fill: none; stroke: #4e79a7"/>
    <path d="M 358.562535 279 
L 358.562535 265.41 
" clip-path="url(#pab3a6bb40c)" style="fill: none; stroke: #4e79a7"/>
    <path d="M 358.562535 279 
L 358.562535 265.41 
" clip-path="url(#pab3a6bb40c)" style="fill: none; stroke: #4e79a7"/>
    <path d="M 358.562535 279 
L 358.562535 265.41 
" clip-path="url(#pab3a6bb40c)" style="fill: none; stroke: #4e79a7"/>
    <path d="M 357.584016 279 
L 357.584016 265.41 
" clip-path="url(#pab3a6bb40c)" style="fill: none; stroke: #4e79a7"/>
    <path d="M 356.605498 279 
L 356.605498 265.41 
" clip-path="url(#pab3a6bb40c)" style="fill: none; stroke: #4e79a7"/>
    <path d="M 356.605498 279 
L 356.605498 265.41 
" clip-path="url(#pab3a6bb40c)" style="fill: none; stroke: #4e79a7"/>
    <path d="M 355.626979 279 
L 355.626979 265.41 
" clip-path="url(#pab3a6bb40c)" style="fill: none; stroke: #4e79a7"/>
    <path d="M 355.626979 279 
L 355.626979 265.41 
" clip-path="url(#pab3a6bb40c)" style="fill: none; stroke: #4e79a7"/>
    <path d="M 354.64846 279 
L 354.64846 265.41 
" clip-path="url(#pab3a6bb40c)" style="fill: none; stroke: #4e79a7"/>
    <path d="M 353.669942 279 
L 353.669942 265.41 
" clip-path="url(#pab3a6bb40c)" style="fill: none; stroke: #4e79a7"/>
    <path d="M 352.691423 279 
L 352.691423 265.41 
" clip-path="url(#pab3a6bb40c)" style="fill: none; stroke: #4e79a7"/>
    <path d="M 352.691423 279 
L 352.691423 265.41 
" clip-path="url(#pab3a6bb40c)" style="fill: none; stroke: #4e79a7"/>
    <path d="M 351.712905 279 
L 351.712905 265.41 
" clip-path="url(#pab3a6bb40c)" style="fill: none; stroke: #4e79a7"/>
    <path d="M 351.712905 279 
L 351.712905 265.41 
" clip-path="url(#pab3a6bb40c)" style="fill: none; stroke: #4e79a7"/>
    <path d="M 349.755867 279 
L 349.755867 265.41 
" clip-path="url(#pab3a6bb40c)" style="fill: none; stroke: #4e79a7"/>
    <path d="M 349.755867 279 
L 349.755867 265.41 
" clip-path="url(#pab3a6bb40c)" style="fill: none; stroke: #4e79a7"/>
    <path d="M 348.777349 279 
L 348.777349 265.41 
" clip-path="url(#pab3a6bb40c)" style="fill: none; stroke: #4e79a7"/>
    <path d="M 347.79883 279 
L 347.79883 265.41 
" clip-path="url(#pab3a6bb40c)" style="fill: none; stroke: #4e79a7"/>
    <path d="M 347.79883 279 
L 347.79883 265.41 
" clip-path="url(#pab3a6bb40c)" style="fill: none; stroke: #4e79a7"/>
    <path d="M 346.820312 279 
L 346.820312 265.41 
" clip-path="url(#pab3a6bb40c)" style="fill: none; stroke: #4e79a7"/>
    <path d="M 343.884756 279 
L 343.884756 265.41 
" clip-path="url(#pab3a6bb40c)" style="fill: none; stroke: #4e79a7"/>
    <path d="M 343.884756 279 
L 343.884756 265.41 
" clip-path="url(#pab3a6bb40c)" style="fill: none; stroke: #4e79a7"/>
    <path d="M 343.884756 279 
L 343.884756 265.41 
" clip-path="url(#pab3a6bb40c)" style="fill: none; stroke: #4e79a7"/>
    <path d="M 342.906237 279 
L 342.906237 265.41 
" clip-path="url(#pab3a6bb40c)" style="fill: none; stroke: #4e79a7"/>
    <path d="M 341.927718 279 
L 341.927718 265.41 
" clip-path="url(#pab3a6bb40c)" style="fill: none; stroke: #4e79a7"/>
    <path d="M 340.9492 279 
L 340.9492 265.41 
" clip-path="url(#pab3a6bb40c)" style="fill: none; stroke: #4e79a7"/>
    <path d="M 340.9492 279 
L 340.9492 265.41 
" clip-path="url(#pab3a6bb40c)" style="fill: none; stroke: #4e79a7"/>
    <path d="M 338.992163 279 
L 338.992163 265.41 
" clip-path="url(#pab3a6bb40c)" style="fill: none; stroke: #4e79a7"/>
    <path d="M 338.013644 279 
L 338.013644 265.41 
" clip-path="url(#pab3a6bb40c)" style="fill: none; stroke: #4e79a7"/>
    <path d="M 338.013644 279 
L 338.013644 265.41 
" clip-path="url(#pab3a6bb40c)" style="fill: none; stroke: #4e79a7"/>
    <path d="M 337.035125 279 
L 337.035125 265.41 
" clip-path="url(#pab3a6bb40c)" style="fill: none; stroke: #4e79a7"/>
    <path d="M 336.056607 279 
L 336.056607 265.41 
" clip-path="url(#pab3a6bb40c)" style="fill: none; stroke: #4e79a7"/>
    <path d="M 334.09957 279 
L 334.09957 265.41 
" clip-path="url(#pab3a6bb40c)" style="fill: none; stroke: #4e79a7"/>
    <path d="M 332.142532 279 
L 332.142532 265.41 
" clip-path="url(#pab3a6bb40c)" style="fill: none; stroke: #4e79a7"/>
    <path d="M 329.206976 279 
L 329.206976 265.41 
" clip-path="url(#pab3a6bb40c)" style="fill: none; stroke: #4e79a7"/>
    <path d="M 326.271421 279 
L 326.271421 265.41 
" clip-path="url(#pab3a6bb40c)" style="fill: none; stroke: #4e79a7"/>
    <path d="M 326.271421 279 
L 326.271421 265.41 
" clip-path="url(#pab3a6bb40c)" style="fill: none; stroke: #4e79a7"/>
    <path d="M 324.314383 279 
L 324.314383 265.41 
" clip-path="url(#pab3a6bb40c)" style="fill: none; stroke: #4e79a7"/>
    <path d="M 323.335865 279 
L 323.335865 265.41 
" clip-path="url(#pab3a6bb40c)" style="fill: none; stroke: #4e79a7"/>
    <path d="M 321.378828 279 
L 321.378828 265.41 
" clip-path="url(#pab3a6bb40c)" style="fill: none; stroke: #4e79a7"/>
    <path d="M 321.378828 279 
L 321.378828 265.41 
" clip-path="url(#pab3a6bb40c)" style="fill: none; stroke: #4e79a7"/>
    <path d="M 319.42179 279 
L 319.42179 265.41 
" clip-path="url(#pab3a6bb40c)" style="fill: none; stroke: #4e79a7"/>
    <path d="M 317.464753 279 
L 317.464753 265.41 
" clip-path="url(#pab3a6bb40c)" style="fill: none; stroke: #4e79a7"/>
    <path d="M 317.464753 279 
L 317.464753 265.41 
" clip-path="url(#pab3a6bb40c)" style="fill: none; stroke: #4e79a7"/>
    <path d="M 317.464753 279 
L 317.464753 265.41 
" clip-path="url(#pab3a6bb40c)" style="fill: none; stroke: #4e79a7"/>
    <path d="M 317.464753 279 
L 317.464753 265.41 
" clip-path="url(#pab3a6bb40c)" style="fill: none; stroke: #4e79a7"/>
    <path d="M 317.464753 279 
L 317.464753 265.41 
" clip-path="url(#pab3a6bb40c)" style="fill: none; stroke: #4e79a7"/>
    <path d="M 316.486234 279 
L 316.486234 265.41 
" clip-path="url(#pab3a6bb40c)" style="fill: none; stroke: #4e79a7"/>
    <path d="M 316.486234 279 
L 316.486234 265.41 
" clip-path="url(#pab3a6bb40c)" style="fill: none; stroke: #4e79a7"/>
    <path d="M 316.486234 279 
L 316.486234 265.41 
" clip-path="url(#pab3a6bb40c)" style="fill: none; stroke: #4e79a7"/>
    <path d="M 314.529197 279 
L 314.529197 265.41 
" clip-path="url(#pab3a6bb40c)" style="fill: none; stroke: #4e79a7"/>
    <path d="M 312.57216 279 
L 312.57216 265.41 
" clip-path="url(#pab3a6bb40c)" style="fill: none; stroke: #4e79a7"/>
    <path d="M 312.57216 279 
L 312.57216 265.41 
" clip-path="url(#pab3a6bb40c)" style="fill: none; stroke: #4e79a7"/>
    <path d="M 310.615123 279 
L 310.615123 265.41 
" clip-path="url(#pab3a6bb40c)" style="fill: none; stroke: #4e79a7"/>
    <path d="M 309.636604 279 
L 309.636604 265.41 
" clip-path="url(#pab3a6bb40c)" style="fill: none; stroke: #4e79a7"/>
    <path d="M 308.658086 279 
L 308.658086 265.41 
" clip-path="url(#pab3a6bb40c)" style="fill: none; stroke: #4e79a7"/>
    <path d="M 308.658086 279 
L 308.658086 265.41 
" clip-path="url(#pab3a6bb40c)" style="fill: none; stroke: #4e79a7"/>
    <path d="M 308.658086 279 
L 308.658086 265.41 
" clip-path="url(#pab3a6bb40c)" style="fill: none; stroke: #4e79a7"/>
    <path d="M 307.679567 279 
L 307.679567 265.41 
" clip-path="url(#pab3a6bb40c)" style="fill: none; stroke: #4e79a7"/>
    <path d="M 306.701048 279 
L 306.701048 265.41 
" clip-path="url(#pab3a6bb40c)" style="fill: none; stroke: #4e79a7"/>
    <path d="M 305.72253 279 
L 305.72253 265.41 
" clip-path="url(#pab3a6bb40c)" style="fill: none; stroke: #4e79a7"/>
    <path d="M 304.744011 279 
L 304.744011 265.41 
" clip-path="url(#pab3a6bb40c)" style="fill: none; stroke: #4e79a7"/>
    <path d="M 303.765492 279 
L 303.765492 265.41 
" clip-path="url(#pab3a6bb40c)" style="fill: none; stroke: #4e79a7"/>
    <path d="M 302.786974 279 
L 302.786974 265.41 
" clip-path="url(#pab3a6bb40c)" style="fill: none; stroke: #4e79a7"/>
    <path d="M 302.786974 279 
L 302.786974 265.41 
" clip-path="url(#pab3a6bb40c)" style="fill: none; stroke: #4e79a7"/>
    <path d="M 302.786974 279 
L 302.786974 265.41 
" clip-path="url(#pab3a6bb40c)" style="fill: none; stroke: #4e79a7"/>
    <path d="M 299.851418 279 
L 299.851418 265.41 
" clip-path="url(#pab3a6bb40c)" style="fill: none; stroke: #4e79a7"/>
    <path d="M 298.872899 279 
L 298.872899 265.41 
" clip-path="url(#pab3a6bb40c)" style="fill: none; stroke: #4e79a7"/>
    <path d="M 298.872899 279 
L 298.872899 265.41 
" clip-path="url(#pab3a6bb40c)" style="fill: none; stroke: #4e79a7"/>
    <path d="M 298.872899 279 
L 298.872899 265.41 
" clip-path="url(#pab3a6bb40c)" style="fill: none; stroke: #4e79a7"/>
    <path d="M 298.872899 279 
L 298.872899 265.41 
" clip-path="url(#pab3a6bb40c)" style="fill: none; stroke: #4e79a7"/>
    <path d="M 298.872899 279 
L 298.872899 265.41 
" clip-path="url(#pab3a6bb40c)" style="fill: none; stroke: #4e79a7"/>
    <path d="M 297.894381 279 
L 297.894381 265.41 
" clip-path="url(#pab3a6bb40c)" style="fill: none; stroke: #4e79a7"/>
    <path d="M 297.894381 279 
L 297.894381 265.41 
" clip-path="url(#pab3a6bb40c)" style="fill: none; stroke: #4e79a7"/>
    <path d="M 296.915862 279 
L 296.915862 265.41 
" clip-path="url(#pab3a6bb40c)" style="fill: none; stroke: #4e79a7"/>
    <path d="M 295.937344 279 
L 295.937344 265.41 
" clip-path="url(#pab3a6bb40c)" style="fill: none; stroke: #4e79a7"/>
    <path d="M 295.937344 279 
L 295.937344 265.41 
" clip-path="url(#pab3a6bb40c)" style="fill: none; stroke: #4e79a7"/>
    <path d="M 294.958825 279 
L 294.958825 265.41 
" clip-path="url(#pab3a6bb40c)" style="fill: none; stroke: #4e79a7"/>
    <path d="M 294.958825 279 
L 294.958825 265.41 
" clip-path="url(#pab3a6bb40c)" style="fill: none; stroke: #4e79a7"/>
    <path d="M 293.980306 279 
L 293.980306 265.41 
" clip-path="url(#pab3a6bb40c)" style="fill: none; stroke: #4e79a7"/>
    <path d="M 293.980306 279 
L 293.980306 265.41 
" clip-path="url(#pab3a6bb40c)" style="fill: none; stroke: #4e79a7"/>
    <path d="M 293.001788 279 
L 293.001788 265.41 
" clip-path="url(#pab3a6bb40c)" style="fill: none; stroke: #4e79a7"/>
    <path d="M 292.023269 279 
L 292.023269 265.41 
" clip-path="url(#pab3a6bb40c)" style="fill: none; stroke: #4e79a7"/>
    <path d="M 291.04475 279 
L 291.04475 265.41 
" clip-path="url(#pab3a6bb40c)" style="fill: none; stroke: #4e79a7"/>
    <path d="M 291.04475 279 
L 291.04475 265.41 
" clip-path="url(#pab3a6bb40c)" style="fill: none; stroke: #4e79a7"/>
    <path d="M 291.04475 279 
L 291.04475 265.41 
" clip-path="url(#pab3a6bb40c)" style="fill: none; stroke: #4e79a7"/>
    <path d="M 291.04475 279 
L 291.04475 265.41 
" clip-path="url(#pab3a6bb40c)" style="fill: none; stroke: #4e79a7"/>
    <path d="M 291.04475 279 
L 291.04475 265.41 
" clip-path="url(#pab3a6bb40c)" style="fill: none; stroke: #4e79a7"/>
    <path d="M 289.087713 279 
L 289.087713 265.41 
" clip-path="url(#pab3a6bb40c)" style="fill: none; stroke: #4e79a7"/>
    <path d="M 289.087713 279 
L 289.087713 265.41 
" clip-path="url(#pab3a6bb40c)" style="fill: none; stroke: #4e79a7"/>
    <path d="M 288.109195 279 
L 288.109195 265.41 
" clip-path="url(#pab3a6bb40c)" style="fill: none; stroke: #4e79a7"/>
    <path d="M 287.130676 279 
L 287.130676 265.41 
" clip-path="url(#pab3a6bb40c)" style="fill: none; stroke: #4e79a7"/>
    <path d="M 285.173639 279 
L 285.173639 265.41 
" clip-path="url(#pab3a6bb40c)" style="fill: none; stroke: #4e79a7"/>
    <path d="M 285.173639 279 
L 285.173639 265.41 
" clip-path="url(#pab3a6bb40c)" style="fill: none; stroke: #4e79a7"/>
    <path d="M 284.19512 279 
L 284.19512 265.41 
" clip-path="url(#pab3a6bb40c)" style="fill: none; stroke: #4e79a7"/>
    <path d="M 284.19512 279 
L 284.19512 265.41 
" clip-path="url(#pab3a6bb40c)" style="fill: none; stroke: #4e79a7"/>
    <path d="M 283.216602 279 
L 283.216602 265.41 
" clip-path="url(#pab3a6bb40c)" style="fill: none; stroke: #4e79a7"/>
    <path d="M 282.238083 279 
L 282.238083 265.41 
" clip-path="url(#pab3a6bb40c)" style="fill: none; stroke: #4e79a7"/>
    <path d="M 281.259564 279 
L 281.259564 265.41 
" clip-path="url(#pab3a6bb40c)" style="fill: none; stroke: #4e79a7"/>
    <path d="M 280.281046 279 
L 280.281046 265.41 
" clip-path="url(#pab3a6bb40c)" style="fill: none; stroke: #4e79a7"/>
    <path d="M 278.324008 279 
L 278.324008 265.41 
" clip-path="url(#pab3a6bb40c)" style="fill: none; stroke: #4e79a7"/>
    <path d="M 277.34549 279 
L 277.34549 265.41 
" clip-path="url(#pab3a6bb40c)" style="fill: none; stroke: #4e79a7"/>
    <path d="M 276.366971 279 
L 276.366971 265.41 
" clip-path="url(#pab3a6bb40c)" style="fill: none; stroke: #4e79a7"/>
    <path d="M 275.388453 279 
L 275.388453 265.41 
" clip-path="url(#pab3a6bb40c)" style="fill: none; stroke: #4e79a7"/>
    <path d="M 272.452897 279 
L 272.452897 265.41 
" clip-path="url(#pab3a6bb40c)" style="fill: none; stroke: #4e79a7"/>
    <path d="M 272.452897 279 
L 272.452897 265.41 
" clip-path="url(#pab3a6bb40c)" style="fill: none; stroke: #4e79a7"/>
    <path d="M 271.474378 279 
L 271.474378 265.41 
" clip-path="url(#pab3a6bb40c)" style="fill: none; stroke: #4e79a7"/>
    <path d="M 270.49586 279 
L 270.49586 265.41 
" clip-path="url(#pab3a6bb40c)" style="fill: none; stroke: #4e79a7"/>
    <path d="M 269.517341 279 
L 269.517341 265.41 
" clip-path="url(#pab3a6bb40c)" style="fill: none; stroke: #4e79a7"/>
    <path d="M 268.538822 279 
L 268.538822 265.41 
" clip-path="url(#pab3a6bb40c)" style="fill: none; stroke: #4e79a7"/>
    <path d="M 265.603267 279 
L 265.603267 265.41 
" clip-path="url(#pab3a6bb40c)" style="fill: none; stroke: #4e79a7"/>
    <path d="M 264.624748 279 
L 264.624748 265.41 
" clip-path="url(#pab3a6bb40c)" style="fill: none; stroke: #4e79a7"/>
    <path d="M 263.646229 279 
L 263.646229 265.41 
" clip-path="url(#pab3a6bb40c)" style="fill: none; stroke: #4e79a7"/>
    <path d="M 261.689192 279 
L 261.689192 265.41 
" clip-path="url(#pab3a6bb40c)" style="fill: none; stroke: #4e79a7"/>
    <path d="M 260.710673 279 
L 260.710673 265.41 
" clip-path="url(#pab3a6bb40c)" style="fill: none; stroke: #4e79a7"/>
    <path d="M 259.732155 279 
L 259.732155 265.41 
" clip-path="url(#pab3a6bb40c)" style="fill: none; stroke: #4e79a7"/>
    <path d="M 258.753636 279 
L 258.753636 265.41 
" clip-path="url(#pab3a6bb40c)" style="fill: none; stroke: #4e79a7"/>
    <path d="M 258.753636 279 
L 258.753636 265.41 
" clip-path="url(#pab3a6bb40c)" style="fill: none; stroke: #4e79a7"/>
    <path d="M 258.753636 279 
L 258.753636 265.41 
" clip-path="url(#pab3a6bb40c)" style="fill: none; stroke: #4e79a7"/>
    <path d="M 258.753636 279 
L 258.753636 265.41 
" clip-path="url(#pab3a6bb40c)" style="fill: none; stroke: #4e79a7"/>
    <path d="M 257.775118 279 
L 257.775118 265.41 
" clip-path="url(#pab3a6bb40c)" style="fill: none; stroke: #4e79a7"/>
    <path d="M 257.775118 279 
L 257.775118 265.41 
" clip-path="url(#pab3a6bb40c)" style="fill: none; stroke: #4e79a7"/>
    <path d="M 257.775118 279 
L 257.775118 265.41 
" clip-path="url(#pab3a6bb40c)" style="fill: none; stroke: #4e79a7"/>
    <path d="M 253.861043 279 
L 253.861043 265.41 
" clip-path="url(#pab3a6bb40c)" style="fill: none; stroke: #4e79a7"/>
    <path d="M 252.882525 279 
L 252.882525 265.41 
" clip-path="url(#pab3a6bb40c)" style="fill: none; stroke: #4e79a7"/>
    <path d="M 252.882525 279 
L 252.882525 265.41 
" clip-path="url(#pab3a6bb40c)" style="fill: none; stroke: #4e79a7"/>
    <path d="M 250.925487 279 
L 250.925487 265.41 
" clip-path="url(#pab3a6bb40c)" style="fill: none; stroke: #4e79a7"/>
    <path d="M 248.96845 279 
L 248.96845 265.41 
" clip-path="url(#pab3a6bb40c)" style="fill: none; stroke: #4e79a7"/>
    <path d="M 247.989931 279 
L 247.989931 265.41 
" clip-path="url(#pab3a6bb40c)" style="fill: none; stroke: #4e79a7"/>
    <path d="M 247.989931 279 
L 247.989931 265.41 
" clip-path="url(#pab3a6bb40c)" style="fill: none; stroke: #4e79a7"/>
    <path d="M 245.054376 279 
L 245.054376 265.41 
" clip-path="url(#pab3a6bb40c)" style="fill: none; stroke: #4e79a7"/>
    <path d="M 245.054376 279 
L 245.054376 265.41 
" clip-path="url(#pab3a6bb40c)" style="fill: none; stroke: #4e79a7"/>
    <path d="M 243.097338 279 
L 243.097338 265.41 
" clip-path="url(#pab3a6bb40c)" style="fill: none; stroke: #4e79a7"/>
    <path d="M 243.097338 279 
L 243.097338 265.41 
" clip-path="url(#pab3a6bb40c)" style="fill: none; stroke: #4e79a7"/>
    <path d="M 242.11882 279 
L 242.11882 265.41 
" clip-path="url(#pab3a6bb40c)" style="fill: none; stroke: #4e79a7"/>
    <path d="M 242.11882 279 
L 242.11882 265.41 
" clip-path="url(#pab3a6bb40c)" style="fill: none; stroke: #4e79a7"/>
    <path d="M 241.140301 279 
L 241.140301 265.41 
" clip-path="url(#pab3a6bb40c)" style="fill: none; stroke: #4e79a7"/>
    <path d="M 240.161783 279 
L 240.161783 265.41 
" clip-path="url(#pab3a6bb40c)" style="fill: none; stroke: #4e79a7"/>
    <path d="M 238.204745 279 
L 238.204745 265.41 
" clip-path="url(#pab3a6bb40c)" style="fill: none; stroke: #4e79a7"/>
    <path d="M 236.247708 279 
L 236.247708 265.41 
" clip-path="url(#pab3a6bb40c)" style="fill: none; stroke: #4e79a7"/>
    <path d="M 236.247708 279 
L 236.247708 265.41 
" clip-path="url(#pab3a6bb40c)" style="fill: none; stroke: #4e79a7"/>
    <path d="M 231.355115 279 
L 231.355115 265.41 
" clip-path="url(#pab3a6bb40c)" style="fill: none; stroke: #4e79a7"/>
    <path d="M 226.462522 279 
L 226.462522 265.41 
" clip-path="url(#pab3a6bb40c)" style="fill: none; stroke: #4e79a7"/>
    <path d="M 219.612892 279 
L 219.612892 265.41 
" clip-path="url(#pab3a6bb40c)" style="fill: none; stroke: #4e79a7"/>
    <path d="M 219.612892 279 
L 219.612892 265.41 
" clip-path="url(#pab3a6bb40c)" style="fill: none; stroke: #4e79a7"/>
    <path d="M 218.634373 279 
L 218.634373 265.41 
" clip-path="url(#pab3a6bb40c)" style="fill: none; stroke: #4e79a7"/>
    <path d="M 209.827705 279 
L 209.827705 265.41 
" clip-path="url(#pab3a6bb40c)" style="fill: none; stroke: #4e79a7"/>
    <path d="M 208.849187 279 
L 208.849187 265.41 
" clip-path="url(#pab3a6bb40c)" style="fill: none; stroke: #4e79a7"/>
    <path d="M 197.106963 279 
L 197.106963 265.41 
" clip-path="url(#pab3a6bb40c)" style="fill: none; stroke: #4e79a7"/>
    <path d="M 190.257333 279 
L 190.257333 265.41 
" clip-path="url(#pab3a6bb40c)" style="fill: none; stroke: #4e79a7"/>
   </g>
   <g id="patch_18">
    <path d="M 56.50625 279 
L 893.50625 279 
" style="fill: none; stroke: #cccccc; stroke-width: 0.8; stroke-linejoin: miter; stroke-linecap: square"/>
   </g>
  </g>
 </g>
 <defs>
  <clipPath id="pab3a6bb40c">
   <rect x="56.50625" y="7.2" width="837" height="271.8"/>
  </clipPath>
 </defs>
</svg>
